<svg width="27" height="24" viewBox="0 0 27 24" fill="none" xmlns="http://www.w3.org/2000/svg">
<path d="M21.1999 10.6872H18.0479C17.9921 10.6795 17.9356 10.6795 17.8799 10.6872H17.7439C17.7021 10.7114 17.662 10.7386 17.6239 10.7685C17.5793 10.7983 17.5366 10.8309 17.4959 10.866C17.4692 10.8992 17.4451 10.9345 17.4239 10.9716C17.3872 11.0228 17.3551 11.0772 17.3279 11.1341L16.0479 14.7175L12.7119 5.53558C12.6558 5.37871 12.5536 5.24318 12.419 5.1474C12.2845 5.05162 12.1242 5.00024 11.9599 5.00024C11.7956 5.00024 11.6353 5.05162 11.5007 5.1474C11.3662 5.24318 11.2639 5.37871 11.2079 5.53558L9.35988 10.6872H6.79988C6.5877 10.6872 6.38422 10.7728 6.23419 10.9252C6.08416 11.0776 5.99988 11.2843 5.99988 11.4998C5.99988 11.7153 6.08416 11.9219 6.23419 12.0743C6.38422 12.2267 6.5877 12.3123 6.79988 12.3123H9.93588H10.1199H10.2399C10.2853 12.2901 10.3283 12.2628 10.3679 12.2311C10.4124 12.2012 10.4552 12.1686 10.4959 12.1336L10.5679 12.0279C10.606 11.9777 10.6382 11.9232 10.6639 11.8654L11.9599 8.18452L15.2879 17.464C15.3438 17.621 15.446 17.7567 15.5805 17.8527C15.7151 17.9487 15.8755 18.0002 16.0399 18.0002C16.2043 18.0002 16.3647 17.9487 16.4992 17.8527C16.6338 17.7567 16.736 17.621 16.7919 17.464L18.6319 12.3123H21.1999C21.4121 12.3123 21.6155 12.2267 21.7656 12.0743C21.9156 11.9219 21.9999 11.7153 21.9999 11.4998C21.9999 11.2843 21.9156 11.0776 21.7656 10.9252C21.6155 10.7728 21.4121 10.6872 21.1999 10.6872Z" fill="black"/>
<path d="M24.5384 2.54248C23.107 1.10447 21.2096 0.226787 19.1888 0.0679796C17.1681 -0.0908282 15.1573 0.479708 13.5196 1.67653C11.8015 0.396051 9.66304 -0.184579 7.5348 0.0515635C5.40656 0.287706 3.44666 1.32308 2.04978 2.94919C0.652892 4.57529 -0.0772172 6.67134 0.00647544 8.81525C0.0901681 10.9591 0.981446 12.9916 2.50083 14.5035L10.8865 22.9194C11.5887 23.6119 12.5344 24 13.5196 24C14.5049 24 15.4506 23.6119 16.1528 22.9194L24.5384 14.5035C26.1151 12.914 27 10.764 27 8.52297C27 6.28194 26.1151 4.13196 24.5384 2.54248ZM22.6344 12.6362L14.2488 21.0387C14.1534 21.1352 14.0398 21.2119 13.9147 21.2642C13.7895 21.3165 13.6552 21.3434 13.5196 21.3434C13.384 21.3434 13.2498 21.3165 13.1246 21.2642C12.9994 21.2119 12.8859 21.1352 12.7904 21.0387L4.40481 12.5957C3.34582 11.511 2.75282 10.0539 2.75282 8.5365C2.75282 7.0191 3.34582 5.56202 4.40481 4.47734C5.48395 3.40977 6.93937 2.81115 8.45584 2.81115C9.97231 2.81115 11.4277 3.40977 12.5069 4.47734C12.6324 4.60416 12.7818 4.70482 12.9463 4.77352C13.1109 4.84221 13.2874 4.87757 13.4656 4.87757C13.6439 4.87757 13.8204 4.84221 13.9849 4.77352C14.1495 4.70482 14.2988 4.60416 14.4244 4.47734C15.5035 3.40977 16.9589 2.81115 18.4754 2.81115C19.9919 2.81115 21.4473 3.40977 22.5264 4.47734C23.6 5.54781 24.2124 6.99698 24.2326 8.51442C24.2528 10.0319 23.6791 11.4969 22.6344 12.5957V12.6362Z" fill="black"/>
</svg>
