<svg width="24" height="20" viewBox="0 0 24 20" fill="none" xmlns="http://www.w3.org/2000/svg">
<path d="M23.0881 7.64095C23.1998 7.14095 22.7531 6.54095 22.1947 6.54095L15.8286 5.74095L12.9247 0.540954C12.813 0.340954 12.7014 0.240954 12.478 0.140954C11.9196 -0.159046 11.2494 0.0409541 10.9144 0.540954L8.12224 5.74095L1.75615 6.54095C1.42109 6.54095 1.19772 6.64095 1.08603 6.84095C0.639291 7.24095 0.639291 7.84095 1.08603 8.24095L5.66515 12.241L4.54829 17.941C4.54829 18.141 4.54829 18.341 4.65998 18.541C4.99504 19.041 5.66515 19.241 6.22358 18.941L11.9196 16.241L17.6155 18.941C17.7272 19.041 17.9506 19.041 18.174 19.041C18.2857 19.041 18.2857 19.041 18.3973 19.041C18.9558 18.941 19.4025 18.441 19.2908 17.841L18.174 12.141L22.7531 8.14095C22.9765 8.04095 23.0881 7.84095 23.0881 7.64095Z" fill="#FFBE41"/>
</svg>
