<svg width="22" height="22" viewBox="0 0 22 22" fill="none" xmlns="http://www.w3.org/2000/svg">
<path d="M18.9689 15.8853C19.2964 14.6629 19.3384 13.3816 19.0915 12.1405C18.8446 10.8994 18.3155 9.73167 17.5452 8.72772C16.7748 7.72377 15.7838 6.91049 14.6489 6.3508C13.5139 5.79111 12.2654 5.5 11 5.5C9.73455 5.5 8.48606 5.79111 7.35112 6.3508C6.21617 6.91049 5.22519 7.72377 4.45483 8.72772C3.68448 9.73167 3.1554 10.8994 2.90852 12.1405C2.66164 13.3816 2.70359 14.6629 3.03111 15.8853" stroke="white" stroke-width="2" stroke-linecap="round"/>
<path d="M11.7018 14.2839C12.1486 14.9342 11.8344 15.9262 10.9999 16.4996C10.1654 17.0731 9.12671 17.0108 8.67987 16.3606C8.21499 15.6841 6.63731 11.9547 5.6338 9.53523C5.42844 9.04012 6.03346 8.62435 6.42205 8.99355C8.32094 10.7977 11.2369 13.6074 11.7018 14.2839Z" stroke="white" stroke-width="2"/>
<path d="M11 5.5V7.33333" stroke="white" stroke-width="2" stroke-linecap="round"/>
<path d="M5.16626 7.91602L6.46262 9.21238" stroke="white" stroke-width="2" stroke-linecap="round"/>
<path d="M16.8337 7.91602L15.5374 9.21238" stroke="white" stroke-width="2" stroke-linecap="round"/>
<path d="M18.969 15.8848L17.1981 15.4103" stroke="white" stroke-width="2" stroke-linecap="round"/>
<path d="M3.03101 15.8848L4.80187 15.4103" stroke="white" stroke-width="2" stroke-linecap="round"/>
</svg>
