<svg width="38" height="38" viewBox="0 0 38 38" fill="none" xmlns="http://www.w3.org/2000/svg">
<g filter="url(#filter0_d_279_767)">
<circle cx="19" cy="15" r="15" fill="white"/>
<circle cx="19" cy="15" r="14.5" stroke="black"/>
</g>
<path d="M24 9H14C13.4 9 13 9.4 13 10C13 10.6 13.4 11 14 11H21.6L13.3 19.3C12.9 19.7 12.9 20.3 13.3 20.7C13.7 21.1 14.3 21.1 14.7 20.7L23 12.4V20C23 20.6 23.4 21 24 21C24.6 21 25 20.6 25 20V10C25 9.4 24.6 9 24 9Z" fill="black"/>
<defs>
<filter id="filter0_d_279_767" x="0" y="0" width="38" height="38" filterUnits="userSpaceOnUse" color-interpolation-filters="sRGB">
<feFlood flood-opacity="0" result="BackgroundImageFix"/>
<feColorMatrix in="SourceAlpha" type="matrix" values="0 0 0 0 0 0 0 0 0 0 0 0 0 0 0 0 0 0 127 0" result="hardAlpha"/>
<feOffset dy="4"/>
<feGaussianBlur stdDeviation="2"/>
<feComposite in2="hardAlpha" operator="out"/>
<feColorMatrix type="matrix" values="0 0 0 0 0 0 0 0 0 0 0 0 0 0 0 0 0 0 0.25 0"/>
<feBlend mode="normal" in2="BackgroundImageFix" result="effect1_dropShadow_279_767"/>
<feBlend mode="normal" in="SourceGraphic" in2="effect1_dropShadow_279_767" result="shape"/>
</filter>
</defs>
</svg>
