<svg width="25" height="25" viewBox="0 0 25 25" fill="none" xmlns="http://www.w3.org/2000/svg">
<path d="M10.4165 19.7917L9.7094 19.0846L9.00229 19.7917L9.7094 20.4988L10.4165 19.7917ZM13.8761 14.9179L9.7094 19.0846L11.1236 20.4988L15.2903 16.3321L13.8761 14.9179ZM9.7094 20.4988L13.8761 24.6654L15.2903 23.2512L11.1236 19.0846L9.7094 20.4988Z" fill="white"/>
<path d="M18.8146 8.85409C19.4546 9.96256 19.7915 11.22 19.7915 12.4999C19.7915 13.7799 19.4546 15.0373 18.8146 16.1458C18.1746 17.2542 17.2541 18.1747 16.1457 18.8147C15.0372 19.4547 13.7798 19.7916 12.4998 19.7916" stroke="white" stroke-width="2" stroke-linecap="round"/>
<path d="M14.5835 5.20833L15.2906 5.91544L15.9977 5.20833L15.2906 4.50123L14.5835 5.20833ZM11.1239 10.0821L15.2906 5.91544L13.8764 4.50123L9.70972 8.66789L11.1239 10.0821ZM15.2906 4.50123L11.1239 0.33456L9.70972 1.74877L13.8764 5.91544L15.2906 4.50123Z" fill="white"/>
<path d="M6.18539 16.1459C5.54542 15.0374 5.2085 13.78 5.2085 12.5001C5.2085 11.2201 5.54542 9.96272 6.18539 8.85425C6.82537 7.74577 7.74586 6.82529 8.85433 6.18531C9.9628 5.54533 11.2202 5.20841 12.5002 5.20841" stroke="white" stroke-width="2" stroke-linecap="round"/>
</svg>
