<svg width="28" height="21" viewBox="0 0 28 21" fill="none" xmlns="http://www.w3.org/2000/svg">
<path d="M7 13.4187H11.2C11.5713 13.4187 11.9274 13.2773 12.1899 13.0256C12.4525 12.774 12.6 12.4327 12.6 12.0768C12.6 11.7209 12.4525 11.3796 12.1899 11.128C11.9274 10.8763 11.5713 10.7349 11.2 10.7349H7C6.6287 10.7349 6.2726 10.8763 6.01005 11.128C5.7475 11.3796 5.6 11.7209 5.6 12.0768C5.6 12.4327 5.7475 12.774 6.01005 13.0256C6.2726 13.2773 6.6287 13.4187 7 13.4187ZM23.8 0H4.2C3.08609 0 2.0178 0.424125 1.23015 1.17907C0.442499 1.93402 0 2.95794 0 4.0256V16.1024C0 17.1701 0.442499 18.194 1.23015 18.9489C2.0178 19.7039 3.08609 20.128 4.2 20.128H23.8C24.9139 20.128 25.9822 19.7039 26.7698 18.9489C27.5575 18.194 28 17.1701 28 16.1024V4.0256C28 2.95794 27.5575 1.93402 26.7698 1.17907C25.9822 0.424125 24.9139 0 23.8 0ZM25.2 16.1024C25.2 16.4583 25.0525 16.7996 24.79 17.0512C24.5274 17.3029 24.1713 17.4443 23.8 17.4443H4.2C3.8287 17.4443 3.4726 17.3029 3.21005 17.0512C2.9475 16.7996 2.8 16.4583 2.8 16.1024V8.0512H25.2V16.1024ZM25.2 5.36747H2.8V4.0256C2.8 3.66971 2.9475 3.32841 3.21005 3.07676C3.4726 2.82511 3.8287 2.68373 4.2 2.68373H23.8C24.1713 2.68373 24.5274 2.82511 24.79 3.07676C25.0525 3.32841 25.2 3.66971 25.2 4.0256V5.36747Z" fill="black"/>
</svg>
