<svg width="32" height="32" viewBox="0 0 32 32" fill="none" xmlns="http://www.w3.org/2000/svg">
<path d="M13.136 20.4C13.2847 20.55 13.4617 20.669 13.6567 20.7502C13.8517 20.8315 14.0608 20.8733 14.272 20.8733C14.4832 20.8733 14.6923 20.8315 14.8873 20.7502C15.0823 20.669 15.2593 20.55 15.408 20.4L21.936 13.872C22.2373 13.5707 22.4065 13.1621 22.4065 12.736C22.4065 12.3099 22.2373 11.9013 21.936 11.6C21.6347 11.2987 21.2261 11.1295 20.8 11.1295C20.3739 11.1295 19.9653 11.2987 19.664 11.6L14.272 17.008L12.336 15.056C12.0347 14.7547 11.6261 14.5855 11.2 14.5855C10.7739 14.5855 10.3653 14.7547 10.064 15.056C9.76271 15.3573 9.59345 15.7659 9.59345 16.192C9.59345 16.6181 9.76271 17.0267 10.064 17.328L13.136 20.4ZM30.4 0H1.6C1.17565 0 0.768687 0.168571 0.468629 0.468629C0.168571 0.768687 0 1.17565 0 1.6V30.4C0 30.8243 0.168571 31.2313 0.468629 31.5314C0.768687 31.8314 1.17565 32 1.6 32H30.4C30.8243 32 31.2313 31.8314 31.5314 31.5314C31.8314 31.2313 32 30.8243 32 30.4V1.6C32 1.17565 31.8314 0.768687 31.5314 0.468629C31.2313 0.168571 30.8243 0 30.4 0ZM28.8 28.8H3.2V3.2H28.8V28.8Z" fill="white"/>
</svg>
