<svg width="15" height="15" viewBox="0 0 15 15" fill="none" xmlns="http://www.w3.org/2000/svg">
<path fill-rule="evenodd" clip-rule="evenodd" d="M7.5 14.625C11.435 14.625 14.625 11.435 14.625 7.5C14.625 6.12593 14.236 4.84271 13.5622 3.75443L8.06336 9.86426C7.37069 10.6339 6.20513 10.7476 5.37677 10.1263L2.94167 8.3C2.49984 7.96863 2.4103 7.34183 2.74167 6.9C3.07304 6.45817 3.69984 6.36863 4.14167 6.7L6.57677 8.52633L12.2667 2.20422C11.0042 1.0671 9.3329 0.375 7.5 0.375C3.56497 0.375 0.375 3.56497 0.375 7.5C0.375 11.435 3.56497 14.625 7.5 14.625Z" fill="white"/>
</svg>
