<svg width="30" height="30" viewBox="0 0 30 30" fill="none" xmlns="http://www.w3.org/2000/svg">
<path fill-rule="evenodd" clip-rule="evenodd" d="M22.9924 7.17502L16.4772 4.3828C15.5339 3.97852 14.4661 3.97852 13.5228 4.3828L7.0076 7.17502C6.548 7.372 6.25 7.82392 6.25 8.32396V14.8901C6.25 17.3122 7.41974 19.5852 9.39071 20.9931L13.5469 23.9618C14.4161 24.5827 15.5839 24.5827 16.4531 23.9618L20.6093 20.9931C22.5803 19.5852 23.75 17.3122 23.75 14.8901V8.32396C23.75 7.82392 23.452 7.372 22.9924 7.17502ZM19.5309 11.8747C19.8759 11.4434 19.806 10.8141 19.3747 10.4691C18.9434 10.1241 18.3141 10.194 17.9691 10.6253L13.6671 16.0029L11.9571 14.2929C11.5666 13.9024 10.9334 13.9024 10.5429 14.2929C10.1524 14.6834 10.1524 15.3166 10.5429 15.7071L12.6479 17.8121C13.28 18.4443 14.3214 18.3866 14.8798 17.6885L19.5309 11.8747Z" fill="white"/>
</svg>
