<svg width="27" height="30" viewBox="0 0 27 30" fill="none" xmlns="http://www.w3.org/2000/svg">
<path d="M25.5 8.93485L16.5 1.13308C15.675 0.403403 14.6069 0 13.5 0C12.3932 0 11.3251 0.403403 10.5001 1.13308L1.50013 8.93485C1.02369 9.35619 0.643488 9.87307 0.384847 10.4511C0.126207 11.0291 -0.0049388 11.6549 0.00014219 12.2869V25.2503C0.00014219 26.4305 0.474245 27.5622 1.31815 28.3967C2.16206 29.2312 3.30664 29.7 4.50011 29.7H22.5C23.6934 29.7 24.838 29.2312 25.6819 28.3967C26.5259 27.5622 27 26.4305 27 25.2503V12.2721C27.0029 11.6426 26.8707 11.0196 26.6122 10.4443C26.3536 9.86901 25.9745 9.35453 25.5 8.93485ZM16.5 26.7335H10.5001V19.3174C10.5001 18.924 10.6581 18.5468 10.9394 18.2686C11.2207 17.9905 11.6022 17.8342 12.0001 17.8342H15C15.3979 17.8342 15.7794 17.9905 16.0607 18.2686C16.342 18.5468 16.5 18.924 16.5 19.3174V26.7335ZM24 25.2503C24 25.6437 23.8419 26.021 23.5606 26.2991C23.2793 26.5773 22.8978 26.7335 22.5 26.7335H19.5V19.3174C19.5 18.1373 19.0259 17.0055 18.182 16.171C17.3381 15.3365 16.1935 14.8677 15 14.8677H12.0001C10.8066 14.8677 9.66201 15.3365 8.8181 16.171C7.97419 17.0055 7.50009 18.1373 7.50009 19.3174V26.7335H4.50011C4.10229 26.7335 3.72076 26.5773 3.43946 26.2991C3.15816 26.021 3.00012 25.6437 3.00012 25.2503V12.2721C3.00039 12.0615 3.04601 11.8534 3.13395 11.6616C3.22188 11.4698 3.35012 11.2987 3.51012 11.1597L12.5101 3.37275C12.7838 3.13496 13.1357 3.00382 13.5 3.00382C13.8644 3.00382 14.2163 3.13496 14.49 3.37275L23.49 11.1597C23.65 11.2987 23.7782 11.4698 23.8661 11.6616C23.9541 11.8534 23.9997 12.0615 24 12.2721V25.2503Z" fill="black"/>
</svg>
