<svg id="Layer_1" data-name="Layer 1" xmlns="http://www.w3.org/2000/svg" viewBox="0 0 110 64.42"><path d="M153.72,106.4h-4.39v-5.92a1.27,1.27,0,0,0-1.26-1.26H141V93.28A1.27,1.27,0,0,0,139.69,92h-8.38a1.27,1.27,0,0,0-1.26,1.26V106.4H101.81v-2.77a1.17,1.17,0,0,0,.51-.31l5.92-5.92a1.27,1.27,0,0,0,0-1.79l-4.19-4.19,5-5a1.26,1.26,0,0,0,0-1.78l-4.34-4.34,3.11-3.11a1.28,1.28,0,0,0,0-1.78l-6.16-6.16a1.28,1.28,0,0,0-1.79,0l-3.1,3.11-4.19-4.19a1.26,1.26,0,0,0-1.78,0l-5,5L81.6,69a1.27,1.27,0,0,0-1.79,0l-5.92,5.92a1.27,1.27,0,0,0,0,1.79L83.17,86l-20,20-9.28-9.28a1.27,1.27,0,0,0-1.79,0l-5.92,5.92a1.27,1.27,0,0,0,0,1.79l4.19,4.18-5,5a1.26,1.26,0,0,0,0,1.78l4.18,4.19-2.95,3a1.26,1.26,0,0,0,0,1.78l6.16,6.16a1.27,1.27,0,0,0,1.79,0l3-3,4.34,4.34a1.27,1.27,0,0,0,1.79,0l5-5L72.85,131a1.29,1.29,0,0,0,1.79,0l5.92-5.93a1.26,1.26,0,0,0,0-1.78l-9.43-9.43,6-6v8.47a1.27,1.27,0,0,0,1.26,1.26h4.19v6.14A1.27,1.27,0,0,0,83.81,125h7.12V131a1.27,1.27,0,0,0,1.26,1.26h8.38a1.27,1.27,0,0,0,1.26-1.26V117.61h28.24V131a1.27,1.27,0,0,0,1.26,1.26h8.38A1.27,1.27,0,0,0,141,131V125h7.12a1.27,1.27,0,0,0,1.26-1.26v-6.14h4.39a1.27,1.27,0,0,0,1.26-1.26v-8.71A1.29,1.29,0,0,0,153.72,106.4ZM100.79,71.92l4.37,4.36L103,78.49l-4.37-4.36Zm-9.07-1.09,14.69,14.69-4.14,4.14L87.58,75Zm-15.16,5,4.14-4.14,20.65,20.65.17.17,4,4-4.14,4.14-2.13-2.13h0l-4-4h0L92.77,92h0Zm-22.89,52-4.38-4.38,2.07-2.07,4.38,4.38Zm9.09,1.38L48.07,114.49l4.13-4.14L66.89,125Zm15.12-5-4.13,4.13L48.89,103.49,53,99.35Zm-8.52-12.1h0L65,107.73l20-20,4.38,4.38Zm21.55-18V99.2H85.79Zm-8.38,8.38v3.93H78.6Zm0,12.66H79.62v-6.19h2.93Zm8.38,7.4H85.07V101.74h5.86Zm2.5,7.18V96.22l5.86,5.86V129.7Zm36.62-14.58H101.81v-6.19h28.24Zm8.38,14.58h-5.85V94.54h5.85Zm8.38-7.18H141V101.74h5.86Zm5.65-7.42h-3.13v-6.17h3.13Z" transform="translate(-45 -67.79)" fill="#d4d4d4"/></svg>