<svg width="28" height="35" viewBox="0 0 28 35" fill="none" xmlns="http://www.w3.org/2000/svg">
<path d="M0 17.5C0 17.0359 0.184374 16.5908 0.512562 16.2626C0.84075 15.9344 1.28587 15.75 1.75 15.75H15.0325L11.0075 11.7425C10.8443 11.5793 10.7149 11.3856 10.6266 11.1724C10.5383 10.9592 10.4928 10.7308 10.4928 10.5C10.4928 10.2692 10.5383 10.0408 10.6266 9.82756C10.7149 9.61438 10.8443 9.42067 11.0075 9.2575C11.1707 9.09433 11.3644 8.9649 11.5776 8.8766C11.7908 8.78829 12.0192 8.74284 12.25 8.74284C12.4808 8.74284 12.7092 8.78829 12.9224 8.8766C13.1356 8.9649 13.3293 9.09433 13.4925 9.2575L20.4925 16.2575C20.6518 16.4239 20.7767 16.6202 20.86 16.835C21.035 17.2611 21.035 17.7389 20.86 18.165C20.7767 18.3798 20.6518 18.5761 20.4925 18.7425L13.4925 25.7425C13.3298 25.9065 13.1363 26.0367 12.923 26.1256C12.7098 26.2144 12.481 26.2601 12.25 26.2601C12.019 26.2601 11.7902 26.2144 11.577 26.1256C11.3637 26.0367 11.1702 25.9065 11.0075 25.7425C10.8435 25.5798 10.7133 25.3863 10.6244 25.173C10.5356 24.9598 10.4899 24.731 10.4899 24.5C10.4899 24.269 10.5356 24.0402 10.6244 23.827C10.7133 23.6137 10.8435 23.4202 11.0075 23.2575L15.0325 19.25H1.75C1.28587 19.25 0.84075 19.0656 0.512562 18.7374C0.184374 18.4092 0 17.9641 0 17.5ZM5.25 0H22.75C24.1424 0 25.4777 0.553124 26.4623 1.53769C27.4469 2.52226 28 3.85761 28 5.25V29.75C28 31.1424 27.4469 32.4777 26.4623 33.4623C25.4777 34.4469 24.1424 35 22.75 35H5.25C3.85761 35 2.52225 34.4469 1.53769 33.4623C0.553123 32.4777 0 31.1424 0 29.75V24.5C0 24.0359 0.184374 23.5908 0.512562 23.2626C0.84075 22.9344 1.28587 22.75 1.75 22.75C2.21413 22.75 2.65925 22.9344 2.98744 23.2626C3.31563 23.5908 3.5 24.0359 3.5 24.5V29.75C3.5 30.2141 3.68437 30.6593 4.01256 30.9874C4.34075 31.3156 4.78587 31.5 5.25 31.5H22.75C23.2141 31.5 23.6592 31.3156 23.9874 30.9874C24.3156 30.6593 24.5 30.2141 24.5 29.75V5.25C24.5 4.78587 24.3156 4.34075 23.9874 4.01256C23.6592 3.68437 23.2141 3.5 22.75 3.5H5.25C4.78587 3.5 4.34075 3.68437 4.01256 4.01256C3.68437 4.34075 3.5 4.78587 3.5 5.25V10.5C3.5 10.9641 3.31563 11.4092 2.98744 11.7374C2.65925 12.0656 2.21413 12.25 1.75 12.25C1.28587 12.25 0.84075 12.0656 0.512562 11.7374C0.184374 11.4092 0 10.9641 0 10.5V5.25C0 3.85761 0.553123 2.52226 1.53769 1.53769C2.52225 0.553124 3.85761 0 5.25 0Z" fill="black"/>
</svg>
