<svg width="30" height="30" viewBox="0 0 30 30" fill="none" xmlns="http://www.w3.org/2000/svg">
<path fill-rule="evenodd" clip-rule="evenodd" d="M13.1894 15.3965L4.19218 12.3975C1.83896 11.6131 0.662354 11.2209 0.662354 10.5001C0.662354 9.77934 1.83896 9.38713 4.19218 8.60273L26.2053 1.26501C27.8611 0.713077 28.689 0.437112 29.126 0.874128C29.5631 1.31114 29.2871 2.13904 28.7352 3.79483L21.3974 25.808C20.613 28.1612 20.2208 29.3378 19.5001 29.3378C18.7793 29.3378 18.3871 28.1612 17.6027 25.808L14.6036 16.8108L21.9572 9.4572C22.3477 9.06668 22.3477 8.43351 21.9572 8.04299C21.5667 7.65247 20.9335 7.65247 20.543 8.04299L13.1894 15.3965Z" fill="white"/>
</svg>
