<svg width="51" height="51" viewBox="0 0 51 51" fill="none" xmlns="http://www.w3.org/2000/svg">
<path fill-rule="evenodd" clip-rule="evenodd" d="M24.0227 25.5633L4.52543 19.0642C2.17221 18.2798 0.995605 17.8876 0.995605 17.1668C0.995605 16.4461 2.17221 16.0539 4.52543 15.2695L47.5386 0.931755C49.1944 0.379825 50.0223 0.10386 50.4593 0.540876C50.8963 0.977892 50.6203 1.80579 50.0684 3.46158L35.7307 46.4747C34.9463 48.828 34.5541 50.0046 33.8333 50.0046C33.1126 50.0046 32.7204 48.828 31.936 46.4747L25.4369 26.9775L37.4571 14.9573C37.8476 14.5668 37.8476 13.9336 37.4571 13.5431C37.0666 13.1525 36.4334 13.1525 36.0429 13.5431L24.0227 25.5633Z" fill="black"/>
</svg>
