<svg width="15" height="16" viewBox="0 0 15 16" fill="none" xmlns="http://www.w3.org/2000/svg">
<path d="M14.7084 6.25768C14.7772 5.86724 14.5019 5.39871 14.1579 5.39871L10.236 4.77401L8.44706 0.713435C8.37826 0.55726 8.30945 0.479172 8.17184 0.401084C7.82782 0.16682 7.41498 0.322996 7.20857 0.713435L5.48843 4.77401L1.56652 5.39871C1.3601 5.39871 1.22249 5.4768 1.15368 5.63297C0.87846 5.94533 0.87846 6.41385 1.15368 6.7262L3.97471 9.84972L3.28665 14.3007C3.28665 14.4569 3.28665 14.6131 3.35546 14.7693C3.56187 15.1597 3.97471 15.3159 4.31873 15.0816L7.82782 12.9732L11.3369 15.0816C11.4057 15.1597 11.5433 15.1597 11.6809 15.1597C11.7497 15.1597 11.7497 15.1597 11.8185 15.1597C12.1626 15.0816 12.4378 14.6912 12.369 14.2226L11.6809 9.77163L14.5019 6.64812C14.6396 6.57003 14.7084 6.41385 14.7084 6.25768Z" fill="#FFBE41"/>
</svg>
