<svg version="1.1" id="Capa_1" xmlns="http://www.w3.org/2000/svg" x="0px" y="0px" fill="#fff"
                                viewBox="0 0 429.232 429.232" xml="preserve">
                                <path id="XMLID_936_" d="M316.171,333.405c32.458,0,58.865-26.407,58.865-58.866s-26.407-58.867-58.865-58.867
	c-32.46,0-58.868,26.408-58.868,58.867S283.711,333.405,316.171,333.405z M316.171,234.671c21.981,0,39.865,17.885,39.865,39.867
	s-17.884,39.866-39.865,39.866c-21.983,0-39.868-17.884-39.868-39.866S294.188,234.671,316.171,234.671z M419.434,403.707h-31.416
	c0.027-0.292,0.041-0.588,0.041-0.887c0-5.247-4.253-9.5-9.5-9.5h-21.021l-9.265-10.361c46.758-13.866,80.96-57.223,80.96-108.419
	c0-62.343-50.719-113.062-113.062-113.062c-14.955,0-29.485,2.877-43.192,8.552c-10.518,3.998-22.298,8.224-34.916,12.627
	l17.797-70.101h30.759c5.247,0,9.5-4.253,9.5-9.5s-4.253-9.5-9.5-9.5h-76.293c-5.247,0-9.5,4.253-9.5,9.5s4.253,9.5,9.5,9.5h25.932
	l-19.679,77.511c-7.727,2.641-15.652,5.331-23.701,8.063c-55,18.669-117.308,39.817-154.698,58.743V156.736l20.988-42.179
	l22.446,7.087c5.002,1.574,10.34-1.195,11.92-6.199c1.579-5.004-1.196-10.34-6.199-11.92L45.095,90.191L27.153,13.855
	c-1.201-5.106-6.31-8.277-11.422-7.074c-5.107,1.2-8.274,6.314-7.074,11.422l19.136,81.414c0.573,5.418,6.352,7.044,6.543,7.102
	l6.49,2.049l-20.652,41.504c-0.654,1.315-0.995,2.764-0.995,4.232v116.317C7.03,283.442,0,300.41,0,318.61
	c0,29.451,18.553,54.653,44.585,64.531l-9.103,10.179H14.461c-5.247,0-9.5,4.253-9.5,9.5c0,0.714,0.079,1.408,0.228,2.077
	c-2.917,1.621-4.892,4.735-4.892,8.31c0,5.247,4.253,9.5,9.5,9.5h409.637c5.247,0,9.5-4.253,9.5-9.5
	S424.681,403.707,419.434,403.707z M19,318.61c0-14.018,5.758-27.028,15.606-36.32c0.342-0.273,0.665-0.569,0.966-0.887
	c3.211-2.873,6.829-5.363,10.802-7.383c36.13-18.362,98.012-39.366,152.609-57.898c29.923-10.156,58.186-19.75,80.882-28.384
	c0.09-0.034,0.179-0.069,0.268-0.106c11.424-4.746,23.549-7.153,36.038-7.153c51.865,0,94.062,42.196,94.062,94.062
	c0,51.864-42.196,94.06-94.062,94.06H68.99C41.426,368.598,19,346.173,19,318.61z M328.021,393.32c-5.247,0-9.5,4.253-9.5,9.5
	c0,0.299,0.014,0.595,0.041,0.887H74.459c0.027-0.292,0.041-0.588,0.041-0.887c0-5.247-4.253-9.5-9.5-9.5h-4.028l5.168-5.779
	c0.945,0.039,1.896,0.059,2.851,0.059h247.181c3.485,0,6.938-0.159,10.344-0.469l5.534,6.189H328.021z"/>
                            </svg>