<svg width="25" height="20" viewBox="0 0 25 20" fill="none" xmlns="http://www.w3.org/2000/svg">
<path d="M16.1125 8.1L12.3625 5.925C12.0293 5.72816 11.6495 5.62433 11.2625 5.62433C10.8755 5.62433 10.4957 5.72816 10.1625 5.925C9.82679 6.11425 9.54848 6.39074 9.35704 6.72521C9.16561 7.05968 9.06815 7.43968 9.075 7.825V12.175C9.06815 12.5603 9.16561 12.9403 9.35704 13.2748C9.54848 13.6093 9.82679 13.8858 10.1625 14.075C10.4957 14.2718 10.8755 14.3757 11.2625 14.3757C11.6495 14.3757 12.0293 14.2718 12.3625 14.075L16.1125 11.9C16.4331 11.7032 16.6979 11.4276 16.8816 11.0993C17.0652 10.771 17.1617 10.4012 17.1617 10.025C17.1617 9.64884 17.0652 9.27897 16.8816 8.95071C16.6979 8.62245 16.4331 8.34677 16.1125 8.15V8.1ZM11.55 11.65V8.35L14.4 10L11.55 11.65ZM21.25 0H3.75C2.75544 0 1.80161 0.395088 1.09835 1.09835C0.395088 1.80161 0 2.75544 0 3.75V16.25C0 17.2446 0.395088 18.1984 1.09835 18.9017C1.80161 19.6049 2.75544 20 3.75 20H21.25C22.2446 20 23.1984 19.6049 23.9017 18.9017C24.6049 18.1984 25 17.2446 25 16.25V3.75C25 2.75544 24.6049 1.80161 23.9017 1.09835C23.1984 0.395088 22.2446 0 21.25 0ZM22.5 16.25C22.5 16.5815 22.3683 16.8995 22.1339 17.1339C21.8995 17.3683 21.5815 17.5 21.25 17.5H3.75C3.41848 17.5 3.10054 17.3683 2.86612 17.1339C2.6317 16.8995 2.5 16.5815 2.5 16.25V3.75C2.5 3.41848 2.6317 3.10054 2.86612 2.86612C3.10054 2.6317 3.41848 2.5 3.75 2.5H21.25C21.5815 2.5 21.8995 2.6317 22.1339 2.86612C22.3683 3.10054 22.5 3.41848 22.5 3.75V16.25Z" fill="white"/>
</svg>
